<svg width="454" height="92" viewBox="0 0 454 92" fill="none" xmlns="http://www.w3.org/2000/svg">
<rect x="1" y="1" width="452" height="90" rx="15" stroke="black" stroke-width="2"/>
<path d="M110.717 41V16.2727H119.772C121.527 16.2727 122.98 16.5625 124.131 17.142C125.282 17.7135 126.143 18.4903 126.714 19.4723C127.286 20.4463 127.572 21.545 127.572 22.7685C127.572 23.7988 127.383 24.6681 127.004 25.3764C126.626 26.0767 126.119 26.6402 125.483 27.0668C124.855 27.4853 124.163 27.7912 123.406 27.9844V28.2259C124.227 28.2661 125.028 28.5317 125.809 29.0227C126.598 29.5057 127.25 30.1939 127.765 31.0874C128.28 31.9808 128.538 33.0675 128.538 34.3473C128.538 35.611 128.24 36.746 127.644 37.7521C127.057 38.7502 126.147 39.5431 124.915 40.1307C123.684 40.7102 122.11 41 120.195 41H110.717ZM114.447 37.8004H119.832C121.619 37.8004 122.899 37.4543 123.672 36.7621C124.445 36.0698 124.831 35.2045 124.831 34.1662C124.831 33.3854 124.634 32.669 124.239 32.017C123.845 31.3651 123.281 30.8459 122.549 30.4595C121.825 30.0732 120.963 29.88 119.965 29.88H114.447V37.8004ZM114.447 26.9702H119.446C120.283 26.9702 121.036 26.8092 121.704 26.4872C122.38 26.1652 122.915 25.7145 123.31 25.1349C123.712 24.5473 123.913 23.8551 123.913 23.0582C123.913 22.036 123.555 21.1787 122.839 20.4865C122.122 19.7943 121.024 19.4482 119.543 19.4482H114.447V26.9702ZM140.666 41.3743C138.839 41.3743 137.265 40.9839 135.945 40.2031C134.633 39.4143 133.619 38.3075 132.902 36.8828C132.194 35.45 131.84 33.7718 131.84 31.848C131.84 29.9484 132.194 28.2741 132.902 26.8253C133.619 25.3764 134.617 24.2455 135.897 23.4325C137.185 22.6196 138.69 22.2131 140.412 22.2131C141.459 22.2131 142.473 22.3861 143.455 22.7322C144.437 23.0784 145.318 23.6217 146.099 24.3622C146.88 25.1027 147.496 26.0646 147.946 27.2479C148.397 28.4231 148.623 29.8518 148.623 31.5341V32.8139H133.88V30.1094H145.085C145.085 29.1596 144.892 28.3184 144.505 27.5859C144.119 26.8454 143.576 26.2618 142.875 25.8352C142.183 25.4086 141.37 25.1953 140.436 25.1953C139.422 25.1953 138.537 25.4448 137.78 25.9439C137.032 26.4349 136.452 27.0788 136.042 27.8757C135.639 28.6645 135.438 29.5218 135.438 30.4474V32.5604C135.438 33.8 135.655 34.8544 136.09 35.7237C136.533 36.593 137.148 37.2571 137.937 37.7159C138.726 38.1667 139.648 38.392 140.702 38.392C141.386 38.392 142.01 38.2955 142.574 38.1023C143.137 37.901 143.624 37.6032 144.034 37.2088C144.445 36.8144 144.759 36.3274 144.976 35.7479L148.393 36.3636C148.119 37.3698 147.628 38.2512 146.92 39.0078C146.22 39.7564 145.338 40.34 144.276 40.7585C143.221 41.169 142.018 41.3743 140.666 41.3743ZM152.628 47.9545V22.4545H156.154V25.4609H156.455C156.665 25.0746 156.967 24.6278 157.361 24.1207C157.755 23.6136 158.303 23.1709 159.003 22.7926C159.703 22.4062 160.629 22.2131 161.78 22.2131C163.277 22.2131 164.613 22.5914 165.789 23.348C166.964 24.1046 167.885 25.1953 168.553 26.62C169.23 28.0447 169.568 29.7592 169.568 31.7635C169.568 33.7678 169.234 35.4863 168.566 36.919C167.897 38.3437 166.98 39.4425 165.813 40.2152C164.646 40.9799 163.313 41.3622 161.816 41.3622C160.689 41.3622 159.768 41.1731 159.051 40.7947C158.343 40.4164 157.788 39.9737 157.385 39.4666C156.983 38.9595 156.673 38.5088 156.455 38.1143H156.238V47.9545H152.628ZM156.166 31.7273C156.166 33.0312 156.355 34.1742 156.733 35.1562C157.111 36.1383 157.659 36.907 158.375 37.4624C159.092 38.0097 159.969 38.2834 161.007 38.2834C162.086 38.2834 162.987 37.9976 163.712 37.4261C164.436 36.8466 164.984 36.0618 165.354 35.0717C165.732 34.0817 165.921 32.9669 165.921 31.7273C165.921 30.5038 165.736 29.4051 165.366 28.4311C165.004 27.4571 164.456 26.6884 163.724 26.125C162.999 25.5616 162.094 25.2798 161.007 25.2798C159.961 25.2798 159.075 25.5495 158.351 26.0888C157.635 26.6281 157.091 27.3807 156.721 28.3466C156.351 29.3125 156.166 30.4394 156.166 31.7273ZM181.424 41.3743C179.629 41.3743 178.084 40.9678 176.788 40.1548C175.5 39.3338 174.51 38.2029 173.818 36.7621C173.125 35.3213 172.779 33.6712 172.779 31.8118C172.779 29.9283 173.133 28.2661 173.842 26.8253C174.55 25.3764 175.548 24.2455 176.836 23.4325C178.124 22.6196 179.641 22.2131 181.388 22.2131C182.797 22.2131 184.052 22.4747 185.155 22.9979C186.258 23.513 187.147 24.2375 187.823 25.1712C188.508 26.1049 188.914 27.1955 189.043 28.4432H185.529C185.336 27.5739 184.893 26.8253 184.201 26.1974C183.517 25.5696 182.599 25.2557 181.448 25.2557C180.442 25.2557 179.561 25.5213 178.804 26.0526C178.056 26.5758 177.472 27.3243 177.053 28.2983C176.635 29.2642 176.426 30.4072 176.426 31.7273C176.426 33.0795 176.631 34.2467 177.041 35.2287C177.452 36.2107 178.031 36.9714 178.78 37.5107C179.537 38.05 180.426 38.3196 181.448 38.3196C182.133 38.3196 182.752 38.1948 183.308 37.9453C183.871 37.6877 184.342 37.3215 184.72 36.8466C185.107 36.3717 185.376 35.8002 185.529 35.1321H189.043C188.914 36.3314 188.524 37.402 187.872 38.3438C187.22 39.2855 186.346 40.026 185.252 40.5653C184.165 41.1046 182.889 41.3743 181.424 41.3743ZM196.441 35.9411L204.615 22.4545H208.503V41H204.965V27.5014L196.827 41H192.903V22.4545H196.441V35.9411ZM224.416 41V25.5334H219.973C218.919 25.5334 218.098 25.7789 217.51 26.2699C216.922 26.7609 216.629 27.4048 216.629 28.2017C216.629 28.9905 216.898 29.6264 217.438 30.1094C217.985 30.5843 218.75 30.8217 219.732 30.8217H225.467V33.7436H219.732C218.363 33.7436 217.18 33.5182 216.182 33.0675C215.192 32.6087 214.427 31.9607 213.888 31.1236C213.357 30.2865 213.091 29.2964 213.091 28.1534C213.091 26.9863 213.365 25.9801 213.912 25.1349C214.467 24.2817 215.26 23.6217 216.29 23.1548C217.329 22.688 218.556 22.4545 219.973 22.4545H227.809V41H224.416ZM212.246 41L217.474 31.6307H221.168L215.94 41H212.246ZM249.424 41.3743C247.629 41.3743 246.084 40.9678 244.788 40.1548C243.5 39.3338 242.51 38.2029 241.818 36.7621C241.125 35.3213 240.779 33.6712 240.779 31.8118C240.779 29.9283 241.133 28.2661 241.842 26.8253C242.55 25.3764 243.548 24.2455 244.836 23.4325C246.124 22.6196 247.641 22.2131 249.388 22.2131C250.797 22.2131 252.052 22.4747 253.155 22.9979C254.258 23.513 255.147 24.2375 255.823 25.1712C256.508 26.1049 256.914 27.1955 257.043 28.4432H253.529C253.336 27.5739 252.893 26.8253 252.201 26.1974C251.517 25.5696 250.599 25.2557 249.448 25.2557C248.442 25.2557 247.561 25.5213 246.804 26.0526C246.056 26.5758 245.472 27.3243 245.053 28.2983C244.635 29.2642 244.426 30.4072 244.426 31.7273C244.426 33.0795 244.631 34.2467 245.041 35.2287C245.452 36.2107 246.031 36.9714 246.78 37.5107C247.537 38.05 248.426 38.3196 249.448 38.3196C250.133 38.3196 250.752 38.1948 251.308 37.9453C251.871 37.6877 252.342 37.3215 252.72 36.8466C253.107 36.3717 253.376 35.8002 253.529 35.1321H257.043C256.914 36.3314 256.524 37.402 255.872 38.3438C255.22 39.2855 254.346 40.026 253.252 40.5653C252.165 41.1046 250.889 41.3743 249.424 41.3743ZM266.3 41.4105C265.125 41.4105 264.063 41.1932 263.113 40.7585C262.163 40.3158 261.411 39.6759 260.855 38.8388C260.308 38.0017 260.034 36.9754 260.034 35.7599C260.034 34.7135 260.235 33.8523 260.638 33.1761C261.04 32.5 261.584 31.9647 262.268 31.5703C262.952 31.1759 263.717 30.8781 264.562 30.6768C265.407 30.4756 266.268 30.3227 267.146 30.218C268.256 30.0893 269.158 29.9846 269.85 29.9041C270.542 29.8156 271.045 29.6747 271.359 29.4815C271.673 29.2884 271.83 28.9744 271.83 28.5398V28.4553C271.83 27.4008 271.532 26.5838 270.937 26.0043C270.349 25.4247 269.472 25.1349 268.305 25.1349C267.089 25.1349 266.131 25.4046 265.431 25.9439C264.739 26.4751 264.26 27.0668 263.994 27.7188L260.602 26.946C261.004 25.8191 261.592 24.9096 262.364 24.2173C263.145 23.517 264.043 23.0099 265.057 22.696C266.071 22.3741 267.138 22.2131 268.256 22.2131C268.997 22.2131 269.782 22.3016 270.611 22.4787C271.448 22.6477 272.229 22.9616 272.953 23.4205C273.686 23.8793 274.285 24.5353 274.752 25.3885C275.219 26.2337 275.452 27.3324 275.452 28.6847V41H271.927V38.4645H271.782C271.549 38.9313 271.198 39.3902 270.732 39.8409C270.265 40.2917 269.665 40.666 268.933 40.9638C268.2 41.2616 267.323 41.4105 266.3 41.4105ZM267.085 38.5128C268.083 38.5128 268.937 38.3156 269.645 37.9212C270.361 37.5268 270.905 37.0116 271.275 36.3757C271.653 35.7318 271.842 35.0436 271.842 34.3111V31.9205C271.714 32.0492 271.464 32.17 271.094 32.2827C270.732 32.3873 270.317 32.4799 269.85 32.5604C269.383 32.6328 268.929 32.7012 268.486 32.7656C268.043 32.822 267.673 32.8703 267.375 32.9105C266.675 32.9991 266.035 33.148 265.455 33.3572C264.884 33.5665 264.425 33.8684 264.079 34.2628C263.741 34.6491 263.572 35.1643 263.572 35.8082C263.572 36.7017 263.902 37.3778 264.562 37.8366C265.222 38.2874 266.063 38.5128 267.085 38.5128ZM283.798 35.9411L291.972 22.4545H295.86V41H292.323V27.5014L284.185 41H280.261V22.4545H283.798V35.9411ZM290.427 16.1761H293.397C293.397 17.5365 292.914 18.6432 291.948 19.4964C290.99 20.3416 289.695 20.7642 288.061 20.7642C286.435 20.7642 285.143 20.3416 284.185 19.4964C283.227 18.6432 282.748 17.5365 282.748 16.1761H285.706C285.706 16.7798 285.883 17.3151 286.237 17.782C286.592 18.2408 287.199 18.4702 288.061 18.4702C288.906 18.4702 289.509 18.2408 289.872 17.782C290.242 17.3232 290.427 16.7879 290.427 16.1761ZM298.414 25.5696V22.4545H314.062V25.5696H308.013V41H304.487V25.5696H298.414ZM322.414 41.4105C321.239 41.4105 320.176 41.1932 319.226 40.7585C318.276 40.3158 317.524 39.6759 316.968 38.8388C316.421 38.0017 316.147 36.9754 316.147 35.7599C316.147 34.7135 316.349 33.8523 316.751 33.1761C317.154 32.5 317.697 31.9647 318.381 31.5703C319.065 31.1759 319.83 30.8781 320.675 30.6768C321.52 30.4756 322.382 30.3227 323.259 30.218C324.37 30.0893 325.271 29.9846 325.963 29.9041C326.656 29.8156 327.159 29.6747 327.473 29.4815C327.787 29.2884 327.944 28.9744 327.944 28.5398V28.4553C327.944 27.4008 327.646 26.5838 327.05 26.0043C326.462 25.4247 325.585 25.1349 324.418 25.1349C323.203 25.1349 322.245 25.4046 321.544 25.9439C320.852 26.4751 320.373 27.0668 320.108 27.7188L316.715 26.946C317.117 25.8191 317.705 24.9096 318.478 24.2173C319.258 23.517 320.156 23.0099 321.17 22.696C322.184 22.3741 323.251 22.2131 324.37 22.2131C325.11 22.2131 325.895 22.3016 326.724 22.4787C327.561 22.6477 328.342 22.9616 329.066 23.4205C329.799 23.8793 330.399 24.5353 330.865 25.3885C331.332 26.2337 331.566 27.3324 331.566 28.6847V41H328.04V38.4645H327.895C327.662 38.9313 327.312 39.3902 326.845 39.8409C326.378 40.2917 325.778 40.666 325.046 40.9638C324.313 41.2616 323.436 41.4105 322.414 41.4105ZM323.199 38.5128C324.197 38.5128 325.05 38.3156 325.758 37.9212C326.475 37.5268 327.018 37.0116 327.388 36.3757C327.766 35.7318 327.956 35.0436 327.956 34.3111V31.9205C327.827 32.0492 327.577 32.17 327.207 32.2827C326.845 32.3873 326.43 32.4799 325.963 32.5604C325.497 32.6328 325.042 32.7012 324.599 32.7656C324.156 32.822 323.786 32.8703 323.488 32.9105C322.788 32.9991 322.148 33.148 321.569 33.3572C320.997 33.5665 320.538 33.8684 320.192 34.2628C319.854 34.6491 319.685 35.1643 319.685 35.8082C319.685 36.7017 320.015 37.3778 320.675 37.8366C321.335 38.2874 322.176 38.5128 323.199 38.5128ZM108.616 82.3487V73.8729H110.125C110.511 73.5187 110.837 73.0961 111.103 72.6051C111.377 72.1141 111.606 71.5305 111.791 70.8544C111.984 70.1783 112.145 69.3894 112.274 68.4879C112.403 67.5784 112.516 66.54 112.612 65.3729L113.192 58.4545H125.797V73.8729H128.646V82.3487H125.121V77H112.19V82.3487H108.616ZM113.989 73.8729H122.271V61.5455H116.428L116.041 65.3729C115.856 67.3208 115.623 69.0111 115.341 70.4439C115.059 71.8686 114.608 73.0116 113.989 73.8729ZM130.714 77L130.702 73.8729H131.366C131.881 73.8729 132.312 73.7642 132.658 73.5469C133.012 73.3215 133.302 72.9432 133.527 72.4119C133.753 71.8807 133.926 71.1482 134.046 70.2145C134.167 69.2727 134.256 68.0895 134.312 66.6648L134.638 58.4545H147.581V77H144.044V61.5696H137.982L137.693 67.8722C137.62 69.4015 137.463 70.7377 137.222 71.8807C136.988 73.0237 136.646 73.9775 136.195 74.7422C135.745 75.4988 135.165 76.0663 134.457 76.4446C133.749 76.8149 132.887 77 131.873 77H130.714ZM163.455 77V61.5334H159.012C157.958 61.5334 157.137 61.7789 156.549 62.2699C155.961 62.7609 155.668 63.4048 155.668 64.2017C155.668 64.9905 155.937 65.6264 156.477 66.1094C157.024 66.5843 157.789 66.8217 158.771 66.8217H164.506V69.7436H158.771C157.402 69.7436 156.219 69.5182 155.221 69.0675C154.231 68.6087 153.466 67.9607 152.927 67.1236C152.396 66.2865 152.13 65.2964 152.13 64.1534C152.13 62.9863 152.404 61.9801 152.951 61.1349C153.506 60.2817 154.299 59.6217 155.33 59.1548C156.368 58.688 157.595 58.4545 159.012 58.4545H166.848V77H163.455ZM151.285 77L156.513 67.6307H160.207L154.979 77H151.285ZM188.463 77.3743C186.668 77.3743 185.123 76.9678 183.827 76.1548C182.539 75.3338 181.549 74.2029 180.857 72.7621C180.164 71.3213 179.818 69.6712 179.818 67.8118C179.818 65.9283 180.173 64.2661 180.881 62.8253C181.589 61.3764 182.587 60.2455 183.875 59.4325C185.163 58.6196 186.68 58.2131 188.427 58.2131C189.836 58.2131 191.091 58.4747 192.194 58.9979C193.297 59.513 194.186 60.2375 194.862 61.1712C195.547 62.1049 195.953 63.1955 196.082 64.4432H192.568C192.375 63.5739 191.932 62.8253 191.24 62.1974C190.556 61.5696 189.638 61.2557 188.487 61.2557C187.481 61.2557 186.6 61.5213 185.843 62.0526C185.095 62.5758 184.511 63.3243 184.093 64.2983C183.674 65.2642 183.465 66.4072 183.465 67.7273C183.465 69.0795 183.67 70.2467 184.08 71.2287C184.491 72.2107 185.07 72.9714 185.819 73.5107C186.576 74.05 187.465 74.3196 188.487 74.3196C189.172 74.3196 189.791 74.1948 190.347 73.9453C190.91 73.6877 191.381 73.3215 191.759 72.8466C192.146 72.3717 192.415 71.8002 192.568 71.1321H196.082C195.953 72.3314 195.563 73.402 194.911 74.3438C194.259 75.2855 193.385 76.026 192.291 76.5653C191.204 77.1046 189.928 77.3743 188.463 77.3743ZM198.482 77L198.469 73.8729H199.134C199.649 73.8729 200.079 73.7642 200.425 73.5469C200.78 73.3215 201.069 72.9432 201.295 72.4119C201.52 71.8807 201.693 71.1482 201.814 70.2145C201.935 69.2727 202.023 68.0895 202.08 66.6648L202.406 58.4545H215.349V77H211.811V61.5696H205.75L205.46 67.8722C205.388 69.4015 205.231 70.7377 204.989 71.8807C204.756 73.0237 204.414 73.9775 203.963 74.7422C203.512 75.4988 202.933 76.0663 202.224 76.4446C201.516 76.8149 200.655 77 199.641 77H198.482ZM225.56 77.4105C224.385 77.4105 223.323 77.1932 222.373 76.7585C221.423 76.3158 220.67 75.6759 220.115 74.8388C219.568 74.0017 219.294 72.9754 219.294 71.7599C219.294 70.7135 219.495 69.8523 219.898 69.1761C220.3 68.5 220.843 67.9647 221.528 67.5703C222.212 67.1759 222.976 66.8781 223.822 66.6768C224.667 66.4756 225.528 66.3227 226.405 66.218C227.516 66.0893 228.418 65.9846 229.11 65.9041C229.802 65.8156 230.305 65.6747 230.619 65.4815C230.933 65.2884 231.09 64.9744 231.09 64.5398V64.4553C231.09 63.4008 230.792 62.5838 230.197 62.0043C229.609 61.4247 228.732 61.1349 227.564 61.1349C226.349 61.1349 225.391 61.4046 224.691 61.9439C223.999 62.4751 223.52 63.0668 223.254 63.7188L219.861 62.946C220.264 61.8191 220.851 60.9096 221.624 60.2173C222.405 59.517 223.302 59.0099 224.317 58.696C225.331 58.3741 226.397 58.2131 227.516 58.2131C228.257 58.2131 229.041 58.3016 229.871 58.4787C230.708 58.6477 231.488 58.9616 232.213 59.4205C232.945 59.8793 233.545 60.5353 234.012 61.3885C234.479 62.2337 234.712 63.3324 234.712 64.6847V77H231.187V74.4645H231.042C230.808 74.9313 230.458 75.3902 229.991 75.8409C229.524 76.2917 228.925 76.666 228.192 76.9638C227.46 77.2616 226.582 77.4105 225.56 77.4105ZM226.345 74.5128C227.343 74.5128 228.196 74.3156 228.905 73.9212C229.621 73.5268 230.164 73.0116 230.535 72.3757C230.913 71.7318 231.102 71.0436 231.102 70.3111V67.9205C230.973 68.0492 230.724 68.17 230.354 68.2827C229.991 68.3873 229.577 68.4799 229.11 68.5604C228.643 68.6328 228.188 68.7012 227.746 68.7656C227.303 68.822 226.933 68.8703 226.635 68.9105C225.934 68.9991 225.295 69.148 224.715 69.3572C224.144 69.5665 223.685 69.8684 223.339 70.2628C223.001 70.6491 222.831 71.1643 222.831 71.8082C222.831 72.7017 223.162 73.3778 223.822 73.8366C224.482 74.2874 225.323 74.5128 226.345 74.5128ZM253.828 51.5483L255.325 53.8303C254.77 54.3374 254.138 54.6996 253.43 54.9169C252.729 55.1262 251.92 55.259 251.003 55.3153C250.085 55.3636 249.035 55.4079 247.852 55.4482C246.515 55.4884 245.417 55.7782 244.555 56.3175C243.694 56.8487 243.03 57.6375 242.563 58.6839C242.104 59.7223 241.807 61.0263 241.67 62.5959H241.899C242.503 61.4448 243.34 60.5836 244.411 60.0121C245.489 59.4406 246.701 59.1548 248.045 59.1548C249.542 59.1548 250.874 59.4969 252.041 60.1811C253.208 60.8653 254.126 61.8674 254.794 63.1875C255.47 64.4995 255.808 66.1053 255.808 68.005C255.808 69.9287 255.454 71.5909 254.746 72.9915C254.045 74.392 253.055 75.4747 251.776 76.2393C250.504 76.996 249.003 77.3743 247.272 77.3743C245.541 77.3743 244.032 76.9839 242.744 76.2031C241.464 75.4143 240.47 74.2472 239.762 72.7017C239.062 71.1562 238.712 69.2486 238.712 66.9787V65.1435C238.712 60.9015 239.468 57.71 240.982 55.5689C242.495 53.4278 244.757 52.3291 247.767 52.2727C248.741 52.2486 249.61 52.2446 250.375 52.2607C251.14 52.2687 251.808 52.2325 252.379 52.152C252.959 52.0634 253.442 51.8622 253.828 51.5483ZM247.284 74.3438C248.29 74.3438 249.156 74.0902 249.88 73.5831C250.612 73.0679 251.176 72.3395 251.57 71.3977C251.965 70.456 252.162 69.3452 252.162 68.0653C252.162 66.8097 251.965 65.7431 251.57 64.8658C251.176 63.9884 250.612 63.3203 249.88 62.8615C249.147 62.3946 248.27 62.1612 247.248 62.1612C246.491 62.1612 245.815 62.294 245.219 62.5597C244.624 62.8172 244.113 63.1996 243.686 63.7067C243.268 64.2138 242.942 64.8336 242.708 65.5661C242.483 66.2905 242.362 67.1236 242.346 68.0653C242.346 69.9811 242.785 71.5064 243.662 72.6413C244.547 73.7763 245.755 74.3438 247.284 74.3438ZM267.653 77.3743C265.914 77.3743 264.397 76.9759 263.101 76.179C261.805 75.3821 260.799 74.2673 260.082 72.8345C259.366 71.4018 259.008 69.7275 259.008 67.8118C259.008 65.888 259.366 64.2057 260.082 62.7649C260.799 61.3241 261.805 60.2053 263.101 59.4084C264.397 58.6115 265.914 58.2131 267.653 58.2131C269.391 58.2131 270.909 58.6115 272.205 59.4084C273.5 60.2053 274.507 61.3241 275.223 62.7649C275.939 64.2057 276.298 65.888 276.298 67.8118C276.298 69.7275 275.939 71.4018 275.223 72.8345C274.507 74.2673 273.5 75.3821 272.205 76.179C270.909 76.9759 269.391 77.3743 267.653 77.3743ZM267.665 74.3438C268.792 74.3438 269.725 74.0459 270.466 73.4503C271.206 72.8546 271.754 72.0618 272.108 71.0717C272.47 70.0817 272.651 68.991 272.651 67.7997C272.651 66.6165 272.47 65.5298 272.108 64.5398C271.754 63.5417 271.206 62.7408 270.466 62.1371C269.725 61.5334 268.792 61.2315 267.665 61.2315C266.53 61.2315 265.588 61.5334 264.839 62.1371C264.099 62.7408 263.548 63.5417 263.185 64.5398C262.831 65.5298 262.654 66.6165 262.654 67.7997C262.654 68.991 262.831 70.0817 263.185 71.0717C263.548 72.0618 264.099 72.8546 264.839 73.4503C265.588 74.0459 266.53 74.3438 267.665 74.3438ZM280.327 77V58.4545H288.018C290.111 58.4545 291.769 58.9013 292.993 59.7947C294.216 60.6802 294.828 61.8835 294.828 63.4048C294.828 64.4915 294.482 65.3527 293.79 65.9886C293.097 66.6245 292.18 67.0511 291.037 67.2685C291.866 67.3651 292.626 67.6146 293.319 68.017C294.011 68.4115 294.566 68.9427 294.985 69.6108C295.412 70.2789 295.625 71.0758 295.625 72.0014C295.625 72.9834 295.371 73.8527 294.864 74.6094C294.357 75.358 293.621 75.9455 292.655 76.3722C291.697 76.7907 290.542 77 289.189 77H280.327ZM283.72 73.9815H289.189C290.083 73.9815 290.783 73.7682 291.29 73.3416C291.797 72.915 292.051 72.3355 292.051 71.603C292.051 70.7417 291.797 70.0656 291.29 69.5746C290.783 69.0755 290.083 68.826 289.189 68.826H283.72V73.9815ZM283.72 66.1818H288.055C288.731 66.1818 289.31 66.0852 289.793 65.892C290.284 65.6989 290.658 65.4252 290.916 65.071C291.182 64.7088 291.314 64.2822 291.314 63.7912C291.314 63.0748 291.021 62.5154 290.433 62.1129C289.845 61.7105 289.041 61.5092 288.018 61.5092H283.72V66.1818ZM303.123 71.9411L311.297 58.4545H315.184V77H311.647V63.5014L303.509 77H299.585V58.4545H303.123V71.9411ZM318.227 82.3487V73.8729H319.736C320.123 73.5187 320.449 73.0961 320.714 72.6051C320.988 72.1141 321.217 71.5305 321.403 70.8544C321.596 70.1783 321.757 69.3894 321.885 68.4879C322.014 67.5784 322.127 66.54 322.224 65.3729L322.803 58.4545H335.408V73.8729H338.258V82.3487H334.732V77H321.801V82.3487H318.227ZM323.6 73.8729H331.883V61.5455H326.039L325.653 65.3729C325.467 67.3208 325.234 69.0111 324.952 70.4439C324.671 71.8686 324.22 73.0116 323.6 73.8729ZM352.846 77V61.5334H348.403C347.348 61.5334 346.527 61.7789 345.94 62.2699C345.352 62.7609 345.058 63.4048 345.058 64.2017C345.058 64.9905 345.328 65.6264 345.867 66.1094C346.415 66.5843 347.179 66.8217 348.161 66.8217H353.896V69.7436H348.161C346.793 69.7436 345.61 69.5182 344.612 69.0675C343.621 68.6087 342.857 67.9607 342.317 67.1236C341.786 66.2865 341.521 65.2964 341.521 64.1534C341.521 62.9863 341.794 61.9801 342.342 61.1349C342.897 60.2817 343.69 59.6217 344.72 59.1548C345.759 58.688 346.986 58.4545 348.403 58.4545H356.239V77H352.846ZM340.675 77L345.903 67.6307H349.598L344.37 77H340.675ZM387.619 73.8849L387.281 82.3125H383.743V77H381.437V73.8849H387.619ZM361.044 58.4545H364.582V73.8729H370.993V58.4545H374.531V73.8729H380.942V58.4545H384.479V77H361.044V58.4545ZM394.963 71.9411L403.137 58.4545H407.024V77H403.487V63.5014L395.349 77H391.425V58.4545H394.963V71.9411ZM414.727 58.4545L418.82 65.6747L422.95 58.4545H426.898L421.115 67.7273L426.946 77H422.998L418.82 70.0696L414.655 77H410.695L416.466 67.7273L410.767 58.4545H414.727Z" fill="black"/>
<path d="M25.8176 48.8976C25.3956 48.2295 25.1846 47.8955 25.0665 47.3802C24.9778 46.9932 24.9778 46.3828 25.0665 45.9958C25.1846 45.4805 25.3956 45.1465 25.8176 44.4784C29.3044 38.9573 39.6832 25 55.5 25C71.3168 25 81.6956 38.9573 85.1824 44.4784C85.6044 45.1465 85.8154 45.4805 85.9335 45.9958C86.0222 46.3828 86.0222 46.9932 85.9335 47.3802C85.8154 47.8955 85.6044 48.2295 85.1824 48.8976C81.6956 54.4187 71.3168 68.376 55.5 68.376C39.6832 68.376 29.3044 54.4187 25.8176 48.8976Z" stroke="black" stroke-width="5.2" stroke-linecap="round" stroke-linejoin="round"/>
<path d="M55.5 55.9829C60.6334 55.9829 64.7949 51.8214 64.7949 46.688C64.7949 41.5546 60.6334 37.3931 55.5 37.3931C50.3666 37.3931 46.2051 41.5546 46.2051 46.688C46.2051 51.8214 50.3666 55.9829 55.5 55.9829Z" stroke="black" stroke-width="5.2" stroke-linecap="round" stroke-linejoin="round"/>
</svg>
